# xmcd
#
# Track frame offsets:
#	150
#	15288
#	29559
#	47444
#	61412
#	74804
#	95273
#	115551
#	133327
#	144659
#	160617
#	178621
#	194913
#	206791
#	222974
#	240157
#	259766
#	277554
#	291349
#	306354
#	322924
#	338009
#
# Disc length: 4609 seconds
# Revision: 2
# Processed by: cddbd v1.5.2PL0 Copyright (c) Steve Scherf et al.
# Submitted via: dBpowerAMP V12.0
#
DISCID=4511ff16
DTITLE=Various Artist - CDX Volume 277
DYEAR=2001
DGENRE=Country
TTITLE0=Lee Ann Womack - Does My Ring Burn Your Finger
TTITLE1=Tractors, The - Fast Girl
TTITLE2=Daisy Dern - Gettin' Back to You
TTITLE3=Cyndi Thomson - I Always Liked That Best
TTITLE4=Emerson Drive - I Should Be Sleeping
TTITLE5=Shedaisy - I Will... But
TTITLE6=Shedaisy - Punishment
TTITLE7=Kristin Garner - Singing to the Scarecrow
TTITLE8=Dixie Chicks - Some Days You Gotta Dance
TTITLE9=Phil Vassar - That's When I Love You
TTITLE10=Clark Family Experience, The - To Quote Shakespeare
TTITLE11=Hal Ketchum - Two of the Lucky Ones
TTITLE12=Rick Hertless - Just the Thought of You
TTITLE13=Perfect Stranger - Miracle
TTITLE14=Eddy Raven - Somebody's Tearin' the Flag
TTITLE15=Billy Ray Cyrus - Some Gave All
TTITLE16=B.J. Thomas - These Colors Won't Run
TTITLE17=Hank Williams III - What Did Love Ever Do to You
TTITLE18=Ricochet - Freedom Isn't Free
TTITLE19=Karen Jeglum Kennedy - Helping Hands
TTITLE20=Don Richmond - Red, White and Blue
TTITLE21=Marshall Dyllon - The Star Spangled Banner
EXTD=
EXTT0=
EXTT1=
EXTT2=
EXTT3=
EXTT4=
EXTT5=
EXTT6=
EXTT7=
EXTT8=
EXTT9=
EXTT10=
EXTT11=
EXTT12=
EXTT13=
EXTT14=
EXTT15=
EXTT16=
EXTT17=
EXTT18=
EXTT19=
EXTT20=
EXTT21=
PLAYORDER=
